<?xml version="1.0" encoding="utf-8"?>
<!-- Generator: Adobe Illustrator 26.0.2, SVG Export Plug-In . SVG Version: 6.00 Build 0)  -->
<svg version="1.1" id="Layer_1" xmlns="http://www.w3.org/2000/svg" xmlns:xlink="http://www.w3.org/1999/xlink" x="0px" y="0px"
	 viewBox="0 0 385.1 48.8" style="enable-background:new 0 0 385.1 48.8;" xml:space="preserve">
<style type="text/css">
	.st0{fill:#999999;}
</style>
<path class="st0" d="M47.2,23.2c-1.4,5-4,9.4-7.3,13l9.8,8.2H38.9l-4.4-3.7c-4.3,2.8-9.3,4.4-14.5,4.6c-8.4,0.2-16.4-4.4-16.4-11.6
	c0-5,3.2-9.2,8.8-11.8c-2.7-2.8-3.7-5.1-3.7-8c0-6,6.1-10.1,15.1-10.1c8.4,0,14.3,4.4,14.3,10.7c0,4.6-3,8.6-9.6,12.4l5.5,4.6
	c2.2-2.3,4-5.1,5.1-8.1H47.2z M16.8,25.6c-3.5,2-5.4,4.7-5.1,7.5c0.3,3.3,4.7,5.3,10.2,4.8c2.2-0.2,4.4-1,6.6-2.3L16.8,25.6z
	 M30.5,15.1c0-2.8-2.6-4.8-6.4-4.8c-3.8,0-6.5,2-6.5,4.6c0,1.8,1.5,3.7,5.9,7.5C28.1,19.9,30.5,17.4,30.5,15.1z"/>
<path d="M74.6,37.8c6.1,0,10.8-3.5,12.4-9H74.2v-6.7h22v22.3h-7.2L88.5,39c-3.8,4-8.8,6.2-14.8,6.2c-11.9,0-20.8-8.9-20.8-20.7
	c0-12,8.9-20.8,21.3-20.8c10.2,0,18.2,5.8,20.7,15h-8c-2.2-4.7-6.8-7.6-12.8-7.6c-7.7,0-13.3,5.6-13.3,13.5
	C60.9,32.3,66.6,37.8,74.6,37.8z"/>
<path d="M122.5,32.7h-10.8v11.6h-8V4.5h20.5c8.5,0,15.6,5.6,15.6,14.1c0,5.6-3.6,10.2-8.6,12.6l10,13.1h-9.9L122.5,32.7z
	 M124.2,11.8h-12.5v13.4h12.5c4.4,0,7.6-2.9,7.6-6.7C131.8,14.7,128.7,11.8,124.2,11.8z"/>
<path d="M161.3,4.5h8.9l20.1,39.8h-8.9l-4.7-9.4h-21.8l-4.7,9.4h-8.8L161.3,4.5z M173,27.7l-7.2-14.3l-7.2,14.3H173z"/>
<path d="M194.1,4.5h20.4c8.5,0,15.7,5.6,15.7,14.1c0,8-7.6,14.1-15.7,14.1h-12.4v11.6h-8V4.5z M214.5,11.8h-12.4v13.4h12.4
	c4.4,0,7.7-2.9,7.7-6.7C222.2,14.7,218.9,11.8,214.5,11.8z"/>
<path d="M236.9,4.5h8v16.2h21.8V4.5h8v39.8h-8V28.1h-21.8v16.3h-8V4.5z"/>
<path d="M290.9,44.3h-8V4.5h8V44.3z"/>
<path d="M319.3,37.6c5.7,0,10.2-2.7,12.5-7h8.4c-2.4,8.9-10.6,14.6-20.9,14.6c-12.5,0-21.9-8.9-21.9-20.7c0-12,9.3-20.8,21.9-20.8
	c10.2,0,18.4,5.7,20.9,14.6h-8.4c-2.2-4.4-6.7-7-12.5-7c-8.1,0-13.9,5.4-13.9,13.2C305.4,32.1,311.2,37.6,319.3,37.6z"/>
<path d="M364.5,45.2c-10.7,0-19-5.2-19.6-13.1h8.3c0.9,3.8,5.4,6.3,11.2,6.3c5.4,0,9.2-2.3,9.2-5.4c0-9.5-28.2,0.2-28.2-18
	c0-7,7.4-11.3,17.2-11.3c10.4,0,17.6,5,18.3,12.2h-8.3c-0.7-3.1-4.9-5.6-10-5.6c-5.6,0-9.2,2.1-9.2,5c0,8.8,28.2-0.4,28.2,18
	C381.5,39.8,375.1,45.2,364.5,45.2z"/>
</svg>
