<?xml version="1.0" standalone="no"?>
<!DOCTYPE svg PUBLIC "-//W3C//DTD SVG 20010904//EN"
 "http://www.w3.org/TR/2001/REC-SVG-20010904/DTD/svg10.dtd">
<svg version="1.0" xmlns="http://www.w3.org/2000/svg"
 width="700.000000pt" height="700.000000pt" viewBox="0 0 700.000000 700.000000"
 preserveAspectRatio="xMidYMid meet">
<metadata>
Created by potrace 1.14, written by Peter Selinger 2001-2017
</metadata>
<g transform="translate(0.000000,700.000000) scale(0.100000,-0.100000)"
fill="#000000" stroke="none">
<path d="M0 3500 l0 -3500 3500 0 3500 0 0 3500 0 3500 -3500 0 -3500 0 0
-3500z m3270 2916 c80 -4 156 -8 170 -11 14 -2 43 -6 65 -9 405 -47 833 -219
1100 -443 255 -212 426 -494 481 -789 21 -115 27 -363 11 -454 -21 -119 -32
-165 -59 -244 -46 -141 -152 -345 -225 -436 -6 -8 -41 -51 -77 -96 -189 -237
-540 -523 -888 -724 -43 -25 -78 -48 -78 -52 0 -3 24 -26 53 -49 28 -24 54
-46 57 -49 3 -3 88 -75 190 -160 102 -85 194 -162 205 -171 58 -51 176 -149
216 -182 l46 -37 26 32 c14 18 40 49 59 68 55 58 201 248 275 360 128 191 240
404 320 601 l34 86 557 0 c306 1 560 -1 564 -3 4 -3 -20 -83 -52 -178 -196
-573 -475 -1061 -879 -1540 l-75 -89 35 -31 c50 -44 78 -68 219 -185 69 -57
136 -113 150 -125 14 -11 68 -57 120 -101 52 -44 97 -82 100 -85 3 -3 73 -61
155 -130 83 -68 152 -127 155 -130 3 -3 18 -16 34 -28 16 -12 56 -46 89 -75
33 -28 69 -59 81 -67 12 -8 26 -19 31 -25 6 -7 51 -45 100 -86 50 -41 95 -79
101 -84 6 -6 41 -35 78 -65 l68 -55 -751 -3 -750 -2 -183 152 c-101 83 -226
187 -278 231 -52 43 -104 86 -115 95 -93 76 -179 149 -188 158 -8 7 -48 -12
-142 -68 -335 -203 -715 -359 -1125 -462 -31 -8 -216 -46 -254 -51 -21 -4 -48
-9 -60 -11 -11 -2 -41 -7 -66 -10 -25 -3 -56 -7 -70 -9 -191 -28 -658 -28
-810 0 -14 3 -41 7 -60 10 -56 7 -103 15 -130 21 -14 3 -36 8 -50 10 -14 3
-75 18 -137 34 -317 84 -601 218 -841 397 -128 95 -323 299 -387 404 -107 175
-177 345 -199 484 -3 17 -8 46 -12 65 -12 67 -10 293 3 394 17 127 56 276 100
386 163 403 504 751 978 996 72 37 132 69 134 70 3 2 -105 131 -129 154 -3 3
-28 34 -56 70 -169 214 -281 465 -310 690 -15 112 -9 361 9 450 64 300 229
548 499 751 43 32 81 59 83 59 3 0 28 15 57 34 242 154 637 280 1010 322 29 3
64 7 78 10 14 2 88 7 165 10 77 3 141 7 142 8 1 1 21 1 45 0 24 -1 108 -5 188
-8z"/>
<path d="M3168 5516 c-1 -2 -55 -6 -118 -10 -142 -7 -174 -12 -278 -42 -331
-96 -539 -315 -547 -579 -7 -243 182 -500 733 -995 46 -41 88 -76 92 -78 12
-5 201 105 335 193 377 250 587 497 641 750 7 33 7 137 -1 185 -3 25 -18 74
-32 110 -101 256 -371 425 -729 455 -38 4 -74 8 -81 10 -6 2 -13 2 -15 1z"/>
<path d="M2044 3307 c-139 -86 -216 -148 -340 -273 -161 -162 -258 -334 -293
-516 -60 -316 62 -560 367 -732 99 -56 283 -121 401 -141 19 -3 37 -7 40 -9 3
-2 38 -7 76 -11 39 -4 86 -9 105 -11 61 -7 333 -7 395 0 299 32 518 96 789
232 204 102 199 79 41 214 -74 63 -148 126 -163 140 -15 14 -49 43 -76 65 -27
22 -56 47 -65 56 -9 8 -77 66 -151 129 -74 63 -137 117 -140 120 -3 3 -66 57
-140 120 -74 63 -148 127 -165 141 -16 15 -84 73 -150 129 -142 121 -148 126
-245 210 -42 36 -100 85 -130 110 -29 25 -59 51 -66 58 -7 6 -14 12 -16 12 -2
0 -35 -19 -74 -43z"/>
</g>
</svg>
