<?xml version="1.0" encoding="utf-8"?>
<!-- Generator: Adobe Illustrator 26.0.2, SVG Export Plug-In . SVG Version: 6.00 Build 0)  -->
<svg version="1.1" id="Layer_1" xmlns="http://www.w3.org/2000/svg" xmlns:xlink="http://www.w3.org/1999/xlink" x="0px" y="0px"
	 viewBox="0 0 80 80" style="enable-background:new 0 0 80 80;" xml:space="preserve">
<g>
	<path d="M34.9,36.5c7.4-4,11.2-8.1,11.2-11.8c0-4.5-4.2-7.7-10.3-7.7s-10.4,3.2-10.4,7.4C25.5,27.3,27.9,30.4,34.9,36.5z"/>
	<path d="M16,53.8c0.5,5.3,7.5,8.6,16.4,7.7c3.5-0.3,7.1-1.6,10.6-3.7L24.2,41.7C18.6,44.9,15.5,49.3,16,53.8z"/>
	<path d="M0,0v80h80V0H0z M61.4,73.4l-8.8-7.3c-6.9,4.5-14.9,7.1-23.3,7.4C15.8,73.8,3,66.4,3,54.8c0-8.1,5.1-14.9,14.1-19
		c-4.3-4.5-5.9-8.2-5.9-12.9c0-9.7,9.8-16.3,24.2-16.3c13.5,0,23,7.1,23,17.3c0,7.4-4.8,13.9-15.4,20l8.8,7.4
		c3.5-3.7,6.4-8.2,8.2-13.1h12.9c0-0.1,0.1-0.2,0.1-0.3v0.3h-0.1c-2.3,7.9-6.4,14.9-11.6,20.7l17.4,14.6H61.4z"/>
</g>
</svg>
